<?xml version="1.0" encoding="UTF-8" standalone="no"?>
<svg
   xmlns:dc="http://purl.org/dc/elements/1.1/"
   xmlns:cc="http://creativecommons.org/ns#"
   xmlns:rdf="http://www.w3.org/1999/02/22-rdf-syntax-ns#"
   xmlns:svg="http://www.w3.org/2000/svg"
   xmlns="http://www.w3.org/2000/svg"
   xmlns:sodipodi="http://sodipodi.sourceforge.net/DTD/sodipodi-0.dtd"
   xmlns:inkscape="http://www.inkscape.org/namespaces/inkscape"
   width="110"
   height="20"
   viewBox="0 0 110 20"
   version="1.1"
   id="svg31"
   sodipodi:docname="utn.svg"
   inkscape:version="0.92.4 (5da689c313, 2019-01-14)">
  <metadata
     id="metadata35">
    <rdf:RDF>
      <cc:Work
         rdf:about="">
        <dc:format>image/svg+xml</dc:format>
        <dc:type
           rdf:resource="http://purl.org/dc/dcmitype/StillImage" />
        <dc:title></dc:title>
      </cc:Work>
    </rdf:RDF>
  </metadata>
  <sodipodi:namedview
     pagecolor="#ffffff"
     bordercolor="#666666"
     borderopacity="1"
     objecttolerance="10"
     gridtolerance="10"
     guidetolerance="10"
     inkscape:pageopacity="0"
     inkscape:pageshadow="2"
     inkscape:window-width="1920"
     inkscape:window-height="981"
     id="namedview33"
     showgrid="false"
     inkscape:zoom="5.386868"
     inkscape:cx="28.625377"
     inkscape:cy="-3.1119451"
     inkscape:window-x="1920"
     inkscape:window-y="28"
     inkscape:window-maximized="1"
     inkscape:current-layer="svg31" />
  <!-- Created by Sindre Sorhus -->
  <defs
     id="defs5">
    <filter
       id="a"
       filterUnits="userSpaceOnUse"
       x="0"
       y="0"
       width="111"
       height="20">
      <feColorMatrix
         values="1 0 0 0 0 0 1 0 0 0 0 0 1 0 0 0 0 0 1 0"
         id="feColorMatrix2" />
    </filter>
    <mask
       maskUnits="userSpaceOnUse"
       x="0"
       y="0"
       width="111"
       height="20"
       id="b-5">
      <path
         style="fill:#ffffff;filter:url(#a-8)"
         inkscape:connector-curvature="0"
         d="m 3,0 h 104 c 1.66,0 3,1.34 3,3 v 14 c 0,1.66 -1.34,3 -3,3 H 3 C 1.34,20 0,18.66 0,17 V 3 C 0,1.34 1.34,0 3,0 Z"
         id="path7-9" />
    </mask>
    <filter
       id="a-8"
       filterUnits="userSpaceOnUse"
       x="0"
       y="0"
       width="111"
       height="20">
      <feColorMatrix
         values="1 0 0 0 0 0 1 0 0 0 0 0 1 0 0 0 0 0 1 0"
         id="feColorMatrix2-7" />
    </filter>
    <linearGradient
       id="linearGradient262"
       gradientUnits="userSpaceOnUse"
       x1="-261.12201"
       y1="239.55"
       x2="-261.12201"
       y2="238.55"
       gradientTransform="matrix(111,0,0,-20,29040,4791)">
      <stop
         offset="0"
         stop-color="#BBB"
         stop-opacity=".1"
         id="stop14-0" />
      <stop
         offset="1"
         stop-opacity=".1"
         id="stop16-7" />
    </linearGradient>
  </defs>
  <mask
     maskUnits="userSpaceOnUse"
     x="0"
     y="0"
     width="111"
     height="20"
     id="b">
    <path
       fill="#FFF"
       filter="url(#a)"
       d="M3 0h104c1.66 0 3 1.34 3 3v14c0 1.66-1.34 3-3 3H3c-1.66 0-3-1.34-3-3V3c0-1.66 1.34-3 3-3z"
       id="path7" />
  </mask>
  <g
     mask="url(#b)"
     id="g21">
    <path
       d="M0 0h34v20H0V0z"
       id="path10"
       fill="#CCA6C4"
       style="fill:#2273c6;fill-opacity:1" />
    <path
       d="M34 0h77v20H34V0z"
       id="path12"
       fill="#494368"
       style="fill:#5a8aa2;fill-opacity:1" />
    <linearGradient
       id="c"
       gradientUnits="userSpaceOnUse"
       x1="-261.122"
       y1="239.55"
       x2="-261.122"
       y2="238.55"
       gradientTransform="matrix(111 0 0 -20 29040 4791)">
      <stop
         offset="0"
         stop-color="#BBB"
         stop-opacity=".1"
         id="stop14" />
      <stop
         offset="1"
         stop-opacity=".1"
         id="stop16" />
    </linearGradient>
    <path
       d="M0 0h111v20H0V0z"
       id="path19"
       fill="url(#c)" />
  </g>
  <g
     id="g180"
     transform="matrix(1.441714,0,0,1.441714,-15.137725,-7.6620963)">
    <g
       id="text39-8"
       style="font-style:normal;font-variant:normal;font-weight:normal;font-stretch:normal;font-size:40px;line-height:1.25;font-family:'DejaVu Sans Mono';-inkscape-font-specification:'DejaVu Sans Mono';letter-spacing:0px;word-spacing:0px;fill:#000000;fill-opacity:1;stroke:none"
       aria-label="PARANA">
      <path
         id="path153"
         style="font-style:normal;font-variant:normal;font-weight:bold;font-stretch:normal;font-size:13.33333302px;font-family:Courier;-inkscape-font-specification:'Courier Bold';letter-spacing:-0.80000001px;fill:#000000"
         d="m 38.82839,8.4791426 v 1.0933333 h 1.026667 V 15.159142 H 38.82839 v 1.093334 h 4.08 v -1.093334 h -1.893333 v -1.746666 h 0.466666 c 1.56,0 2.04,-0.02667 2.76,-0.44 0.613334,-0.346667 1.053334,-1.186667 1.053334,-1.973333 0,-0.88 -0.52,-1.7333338 -1.253334,-2.1466671 -0.52,-0.2933333 -1.08,-0.3733333 -2.026666,-0.3733333 z m 3.2,1.0933333 c 0.88,0 1.146667,0.08 1.413333,0.2266667 0.32,0.1733333 0.626667,0.6133334 0.626667,1.1600004 0,0.573333 -0.333333,0.973333 -0.533333,1.08 -0.32,0.173333 -0.626667,0.279999 -2.04,0.279999 h -0.48 V 9.5724759 Z"
         inkscape:connector-curvature="0" />
      <path
         id="path155"
         style="font-style:normal;font-variant:normal;font-weight:bold;font-stretch:normal;font-size:13.33333302px;font-family:Courier;-inkscape-font-specification:'Courier Bold';letter-spacing:-0.80000001px;fill:#000000"
         d="m 46.276515,8.4791426 v 1.0933333 h 1.72 l -2.28,5.5866661 h -0.773333 v 1.093334 h 3.159999 v -1.093334 h -1.186666 l 0.52,-1.306666 h 3 l 0.52,1.306666 h -1.173334 v 1.093334 h 3.16 V 15.159142 H 52.196515 L 49.489848,8.4791426 Z m 3.733333,4.2799994 h -2.12 l 1.053333,-2.546666 z"
         inkscape:connector-curvature="0" />
      <path
         id="path157"
         style="font-style:normal;font-variant:normal;font-weight:bold;font-stretch:normal;font-size:13.33333302px;font-family:Courier;-inkscape-font-specification:'Courier Bold';letter-spacing:-0.80000001px;fill:#000000"
         d="m 52.604639,8.4791426 v 1.0933333 h 1.04 v 5.5866661 h -1.04 v 1.093334 h 3.36 v -1.093334 h -1.16 v -2.226666 h 0.68 c 0.426667,0 0.586667,0.16 1.146667,1 0.02667,0.04 0.773333,1.186666 1.293333,2.32 h 2.053334 v -1.093334 h -1.253334 c -0.906666,-1.533333 -1.173333,-1.92 -1.493333,-2.36 1.706667,-0.506666 1.72,-1.866666 1.72,-2.133333 0,-0.7066664 -0.36,-1.4266664 -0.88,-1.7866664 -0.533333,-0.3733333 -1.08,-0.4 -1.906667,-0.4 z m 3.56,1.0933333 c 0.96,0 1.56,0.1733333 1.56,1.0533331 0,1.293334 -1.48,1.213334 -1.933333,1.213334 H 54.804639 V 9.5724759 Z"
         inkscape:connector-curvature="0" />
      <path
         id="path159"
         style="font-style:normal;font-variant:normal;font-weight:bold;font-stretch:normal;font-size:13.33333302px;font-family:Courier;-inkscape-font-specification:'Courier Bold';letter-spacing:-0.80000001px;fill:#000000"
         d="m 60.666099,8.4791426 v 1.0933333 h 1.72 l -2.28,5.5866661 h -0.773333 v 1.093334 h 3.16 v -1.093334 h -1.186667 l 0.52,-1.306666 h 3 l 0.52,1.306666 h -1.173334 v 1.093334 h 3.16 V 15.159142 H 66.586099 L 63.879432,8.4791426 Z m 3.733333,4.2799994 h -2.12 l 1.053333,-2.546666 z"
         inkscape:connector-curvature="0" />
      <path
         id="path161"
         style="font-style:normal;font-variant:normal;font-weight:bold;font-stretch:normal;font-size:13.33333302px;font-family:Courier;-inkscape-font-specification:'Courier Bold';letter-spacing:-0.80000001px;fill:#000000"
         d="m 66.594222,8.4791426 v 1.0933333 h 1.04 v 5.5866661 h -1.04 v 1.093334 h 3.453333 v -1.093334 h -1.346666 v -4.613333 h 0.24 l 3.186666,5.866667 h 1.426667 V 9.5724759 h 0.893333 V 8.4791426 h -3.293333 v 1.0933333 h 1.333333 v 4.6800001 h -0.226666 l -3.12,-5.7733334 z"
         inkscape:connector-curvature="0" />
      <path
         id="path163"
         style="font-style:normal;font-variant:normal;font-weight:bold;font-stretch:normal;font-size:13.33333302px;font-family:Courier;-inkscape-font-specification:'Courier Bold';letter-spacing:-0.80000001px;fill:#000000"
         d="m 75.055681,8.4791426 v 1.0933333 h 1.72 l -2.28,5.5866661 h -0.773334 v 1.093334 h 3.16 v -1.093334 h -1.186666 l 0.52,-1.306666 h 2.999999 l 0.52,1.306666 h -1.173333 v 1.093334 h 3.16 V 15.159142 H 80.97568 L 78.269014,8.4791426 Z m 3.733333,4.2799994 h -2.12 l 1.053333,-2.546666 z"
         inkscape:connector-curvature="0" />
    </g>
    <g
       id="text39-8-1"
       style="font-style:normal;font-variant:normal;font-weight:normal;font-stretch:normal;font-size:40px;line-height:1.25;font-family:'DejaVu Sans Mono';-inkscape-font-specification:'DejaVu Sans Mono';letter-spacing:0px;word-spacing:0px;fill:#ffffff;fill-opacity:1;stroke:none"
       aria-label="PARANA">
      <path
         id="path140"
         style="font-style:normal;font-variant:normal;font-weight:bold;font-stretch:normal;font-size:13.33333302px;font-family:Courier;-inkscape-font-specification:'Courier Bold';letter-spacing:-0.80000001px;fill:#ffffff"
         d="M 38.37797,8.0890497 V 9.182383 h 1.026666 V 14.76905 H 38.37797 v 1.093333 h 4.08 V 14.76905 h -1.893334 v -1.746667 h 0.466667 c 1.56,0 2.04,-0.02667 2.76,-0.44 0.613333,-0.346667 1.053333,-1.186667 1.053333,-1.973333 0,-0.8800003 -0.52,-1.7333336 -1.253333,-2.1466669 -0.52,-0.2933334 -1.08,-0.3733334 -2.026667,-0.3733334 z m 3.2,1.0933333 c 0.88,0 1.146666,0.08 1.413333,0.2266667 0.32,0.1733333 0.626667,0.6133333 0.626667,1.1600003 0,0.573333 -0.333334,0.973333 -0.533334,1.08 -0.32,0.173333 -0.626666,0.28 -2.04,0.28 h -0.48 V 9.182383 Z"
         inkscape:connector-curvature="0" />
      <path
         id="path142"
         style="font-style:normal;font-variant:normal;font-weight:bold;font-stretch:normal;font-size:13.33333302px;font-family:Courier;-inkscape-font-specification:'Courier Bold';letter-spacing:-0.80000001px;fill:#ffffff"
         d="M 45.826094,8.0890497 V 9.182383 h 1.72 l -2.28,5.586667 h -0.773333 v 1.093333 h 3.16 V 14.76905 h -1.186667 l 0.52,-1.306667 h 3 l 0.52,1.306667 h -1.173333 v 1.093333 h 3.16 V 14.76905 H 51.746094 L 49.039428,8.0890497 Z m 3.733334,4.2800003 h -2.12 l 1.053333,-2.546667 z"
         inkscape:connector-curvature="0" />
      <path
         id="path144"
         style="font-style:normal;font-variant:normal;font-weight:bold;font-stretch:normal;font-size:13.33333302px;font-family:Courier;-inkscape-font-specification:'Courier Bold';letter-spacing:-0.80000001px;fill:#ffffff"
         d="M 52.154219,8.0890497 V 9.182383 h 1.04 v 5.586667 h -1.04 v 1.093333 h 3.36 V 14.76905 h -1.16 v -2.226667 h 0.68 c 0.426667,0 0.586667,0.16 1.146667,1 0.02667,0.04 0.773333,1.186667 1.293333,2.32 h 2.053333 V 14.76905 h -1.253333 c -0.906667,-1.533334 -1.173333,-1.92 -1.493333,-2.36 1.706666,-0.506667 1.72,-1.866667 1.72,-2.133334 0,-0.7066663 -0.36,-1.4266663 -0.88,-1.7866663 -0.533334,-0.3733333 -1.08,-0.4 -1.906667,-0.4 z m 3.56,1.0933333 c 0.96,0 1.56,0.1733334 1.56,1.053333 0,1.293334 -1.48,1.213334 -1.933333,1.213334 H 54.354219 V 9.182383 Z"
         inkscape:connector-curvature="0" />
      <path
         id="path146"
         style="font-style:normal;font-variant:normal;font-weight:bold;font-stretch:normal;font-size:13.33333302px;font-family:Courier;-inkscape-font-specification:'Courier Bold';letter-spacing:-0.80000001px;fill:#ffffff"
         d="M 60.215679,8.0890497 V 9.182383 h 1.719999 l -2.279999,5.586667 h -0.773334 v 1.093333 h 3.16 V 14.76905 h -1.186667 l 0.52,-1.306667 h 3 l 0.52,1.306667 h -1.173333 v 1.093333 h 3.16 V 14.76905 H 66.135678 L 63.429012,8.0890497 Z m 3.733333,4.2800003 h -2.12 l 1.053333,-2.546667 z"
         inkscape:connector-curvature="0" />
      <path
         id="path148"
         style="font-style:normal;font-variant:normal;font-weight:bold;font-stretch:normal;font-size:13.33333302px;font-family:Courier;-inkscape-font-specification:'Courier Bold';letter-spacing:-0.80000001px;fill:#ffffff"
         d="M 66.143802,8.0890497 V 9.182383 h 1.04 v 5.586667 h -1.04 v 1.093333 h 3.453333 V 14.76905 h -1.346667 v -4.613334 h 0.24 l 3.186667,5.866667 h 1.426667 v -6.84 h 0.893333 V 8.0890497 H 70.703802 V 9.182383 h 1.333333 v 4.68 h -0.226667 l -3.12,-5.7733333 z"
         inkscape:connector-curvature="0" />
      <path
         id="path150"
         style="font-style:normal;font-variant:normal;font-weight:bold;font-stretch:normal;font-size:13.33333302px;font-family:Courier;-inkscape-font-specification:'Courier Bold';letter-spacing:-0.80000001px;fill:#ffffff"
         d="M 74.60526,8.0890497 V 9.182383 h 1.72 l -2.28,5.586667 h -0.773333 v 1.093333 h 3.16 V 14.76905 H 75.24526 l 0.52,-1.306667 h 3 l 0.52,1.306667 h -1.173333 v 1.093333 h 3.16 V 14.76905 H 80.52526 L 77.818593,8.0890497 Z m 3.733333,4.2800003 h -2.12 l 1.053334,-2.546667 z"
         inkscape:connector-curvature="0" />
    </g>
  </g>
  <g
     id="g205"
     transform="matrix(1.0382586,0,0,1.0382586,-1.1775509,-0.26212417)">
    <path
       id="path58"
       d="m 16.614261,2.8923891 h 2.073136 v 3.877988 c 1.642251,-0.455277 2.853613,-1.965415 2.853613,-3.747908 h 2.160535 c 0,2.977596 -2.170696,5.465362 -5.012116,5.959255 v 0.08943 h 4.75399 v 2.1178529 h -4.357654 c 2.642235,0.64633 4.613748,3.038568 4.613748,5.875922 H 21.54101 c 0,-1.782492 -1.211362,-3.292631 -2.851581,-3.747908 v 3.79059 h -2.073137 v -3.79059 c -1.640219,0.455277 -2.851581,1.965416 -2.851581,3.747908 h -2.162567 c 0,-2.837354 1.971514,-5.229592 4.613749,-5.875922 H 11.862302 V 9.0711541 h 4.75399 v -0.08943 c -2.843451,-0.493893 -5.014148,-2.981659 -5.014148,-5.959255 h 2.160535 c 0,1.782493 1.211363,3.292631 2.851582,3.747908 z"
       style="clip-rule:evenodd;fill:#729bff;fill-opacity:1;fill-rule:evenodd;stroke-width:0.02032488"
       inkscape:connector-curvature="0" />
    <path
       id="path58-9"
       d="m 16.382216,2.6603431 h 2.073136 v 3.877988 c 1.642251,-0.455277 2.853613,-1.965415 2.853613,-3.747908 H 23.4695 c 0,2.977596 -2.170696,5.465362 -5.012116,5.959255 v 0.08943 h 4.75399 V 10.956962 H 18.85372 c 2.642235,0.64633 4.613748,3.038568 4.613748,5.875922 h -2.158503 c 0,-1.782492 -1.211362,-3.292631 -2.851581,-3.747908 v 3.79059 h -2.073137 v -3.79059 c -1.640219,0.455277 -2.851581,1.965416 -2.851581,3.747908 h -2.162567 c 0,-2.837354 1.971514,-5.229592 4.613749,-5.875922 H 11.630257 V 8.8391081 h 4.75399 v -0.08943 c -2.843451,-0.493893 -5.014148,-2.981659 -5.014148,-5.959255 h 2.160535 c 0,1.782493 1.211363,3.292631 2.851582,3.747908 z"
       style="clip-rule:evenodd;fill:#000000;fill-rule:evenodd;stroke-width:0.02032488"
       inkscape:connector-curvature="0" />
  </g>
</svg>
